<svg xmlns="http://www.w3.org/2000/svg" enable-background="new 0 0 32 32" viewBox="0 0 32 32"><path fill="#ffc843" d="M11,11H7c-0.6,0-1,0.4-1,1v10c0,0.6,0.4,1,1,1h4c0.6,0,1-0.4,1-1V12C12,11.4,11.6,11,11,11z"/><path fill="#00af41" d="M18,8h-4c-0.6,0-1,0.4-1,1v13c0,0.6,0.4,1,1,1h4c0.6,0,1-0.4,1-1V9C19,8.4,18.6,8,18,8z"/><path fill="#66aae2" d="M25,6h-4c-0.6,0-1,0.4-1,1v15c0,0.6,0.4,1,1,1h4c0.6,0,1-0.4,1-1V7C26,6.4,25.6,6,25,6z"/><path fill="#e0b03b" d="M11,23H7c-0.6,0-1-0.4-1-1V12c0-0.6,0.4-1,1-1h4c0.6,0,1,0.4,1,1v10C12,22.6,11.6,23,11,23z M8,21
				h2v-8H8V21z"/><path fill="#009638" d="M18,23h-4c-0.6,0-1-0.4-1-1V9c0-0.6,0.4-1,1-1h4c0.6,0,1,0.4,1,1v13C19,22.6,18.6,23,18,23z
				 M15,21h2V10h-2V21z"/><path fill="#005fad" d="M25,23h-4c-0.6,0-1-0.4-1-1V7c0-0.6,0.4-1,1-1h4c0.6,0,1,0.4,1,1v15C26,22.6,25.6,23,25,23z
				 M22,21h2V8h-2V21z"/><path fill="#333e48" d="M25,26H7c-0.6,0-1-0.4-1-1s0.4-1,1-1h18c0.6,0,1,0.4,1,1S25.6,26,25,26z"/></svg>